# xmcd
#
# Track frame offsets: 
#        150
#        12301
#        23931
#        34826
#        43966
#        54236
#        64473
#        76309
#        87463
#        95674
#        108932
#        120056
#        130555
#        142684
#        152637
#        162584
#        174026
#        188806
#        202246
#
# Disc length: 2867 seconds
#
# Revision: 0
# Processed by: cddbd v1.5.2PL0 Copyright (c) Steve Scherf et al.
# Submitted via: ExactAudioCopy v1.3
#
DISCID=f50b3113
DTITLE=Various Artist - Black and Blue By DJ Dangit [2010 Breakaway R
DTITLE=ecords]
DYEAR=2010
DGENRE=Rock
TTITLE0=Johnny Copeland - Just One More Time
TTITLE1=Bob Gaddy - Operator
TTITLE2=Guitar Slim - Well I Done Got Over It
TTITLE3=Ruth Brown - Yes Sir That's My Guy
TTITLE4=Emorise Kelley - The Biggest Fool
TTITLE5=The O'Jays - I've Cried My Last Tear
TTITLE6=Nella Dodds - Come See About Me
TTITLE7=Big Jay McNeely - Back...Shack...Track
TTITLE8=Muddy Waters - Muddy Waters Twist
TTITLE9=Lulu Reed and Freddy King - You Can't Hide
TTITLE10=Jane Baker - Sing On Baby
TTITLE11=Sonny Til and Orioles - Hey Little Woman
TTITLE12=Gene Ricky - What You Wanted Most
TTITLE13=Nathaniel Mayer - I Had A Dream
TTITLE14=Otis Williams - You Know How Much I Care
TTITLE15=Sonny Terry - Ride and Roll
TTITLE16=Elmore James - Sunnyland
TTITLE17=Solomon Burke - You're Good For Me
TTITLE18=Ella Johnson - I'm Just Your Fool
EXTD=
EXTT0=
EXTT1=
EXTT2=
EXTT3=
EXTT4=
EXTT5=
EXTT6=
EXTT7=
EXTT8=
EXTT9=
EXTT10=
EXTT11=
EXTT12=
EXTT13=
EXTT14=
EXTT15=
EXTT16=
EXTT17=
EXTT18=
PLAYORDER=
